<svg width="6" height="6" viewBox="0 0 6 6" fill="none" xmlns="http://www.w3.org/2000/svg">
<path d="M3.23412 4.66654L5.90415 1.99647C5.96595 1.93471 6 1.85228 6 1.76437C6 1.67647 5.96595 1.59403 5.90415 1.53228L5.70756 1.33565C5.57947 1.2077 5.37127 1.2077 5.24337 1.33565L3.00124 3.57777L0.756628 1.33316C0.694824 1.2714 0.612434 1.2373 0.524581 1.2373C0.436631 1.2373 0.354241 1.2714 0.292387 1.33316L0.0958529 1.52979C0.0340486 1.59159 0 1.67398 0 1.76189C0 1.84979 0.0340486 1.93223 0.0958529 1.99398L2.76832 4.66654C2.83032 4.72845 2.9131 4.76245 3.0011 4.76225C3.08944 4.76245 3.17217 4.72845 3.23412 4.66654Z" fill="black"/>
</svg>
