<svg width="100" height="100" viewBox="0 0 100 100" fill="none" xmlns="http://www.w3.org/2000/svg">
<g filter="url(#filter0_d)">
<circle cx="46" cy="42" r="25" fill="#FDFDFD" fill-opacity="0.9"/>
<circle cx="46" cy="42" r="24.5" stroke="url(#paint0_linear)"/>
</g>
<g clip-path="url(#clip0)">
<path d="M39.7036 41.3495L47.1205 33.9328C47.292 33.7611 47.521 33.6665 47.7652 33.6665C48.0093 33.6665 48.2383 33.7611 48.4099 33.9328L48.9561 34.4788C49.3115 34.8347 49.3115 35.413 48.9561 35.7682L42.7279 41.9964L48.963 48.2314C49.1345 48.4031 49.2292 48.632 49.2292 48.876C49.2292 49.1203 49.1345 49.3492 48.963 49.521L48.4168 50.0669C48.2451 50.2386 48.0162 50.3332 47.7721 50.3332C47.5279 50.3332 47.2989 50.2386 47.1274 50.0669L39.7036 42.6434C39.5316 42.4712 39.4372 42.2412 39.4377 41.9968C39.4372 41.7514 39.5316 41.5216 39.7036 41.3495Z" fill="#FF5722"/>
</g>
<defs>
<filter id="filter0_d" x="0" y="0" width="100" height="100" filterUnits="userSpaceOnUse" color-interpolation-filters="sRGB">
<feFlood flood-opacity="0" result="BackgroundImageFix"/>
<feColorMatrix in="SourceAlpha" type="matrix" values="0 0 0 0 0 0 0 0 0 0 0 0 0 0 0 0 0 0 127 0" result="hardAlpha"/>
<feOffset dx="4" dy="8"/>
<feGaussianBlur stdDeviation="12.5"/>
<feColorMatrix type="matrix" values="0 0 0 0 0 0 0 0 0 0 0 0 0 0 0 0 0 0 0.2 0"/>
<feBlend mode="normal" in2="BackgroundImageFix" result="effect1_dropShadow"/>
<feBlend mode="normal" in="SourceGraphic" in2="effect1_dropShadow" result="shape"/>
</filter>
<linearGradient id="paint0_linear" x1="71" y1="42" x2="21" y2="42" gradientUnits="userSpaceOnUse">
<stop stop-color="#FF5722"/>
<stop offset="1" stop-color="#FABE2C"/>
</linearGradient>
<clipPath id="clip0">
<rect width="16.6667" height="16.6667" fill="white" transform="matrix(-1 0 0 1 52.6667 33.6665)"/>
</clipPath>
</defs>
</svg>
