<svg width="26" height="26" viewBox="0 0 26 26" fill="none" xmlns="http://www.w3.org/2000/svg">
<g clip-path="url(#clip0)">
<path d="M17.0117 20.8711H0.761719C0.341047 20.8711 0 21.2121 0 21.6328C0 22.8949 1.02309 23.918 2.28516 23.918H15.4883C16.7503 23.918 17.7734 22.8949 17.7734 21.6328C17.7734 21.2121 17.4324 20.8711 17.0117 20.8711Z" fill="#FF5A23"/>
<path d="M25.6257 3.3907C22.6729 1.64581 19.6784 1.64581 16.7256 3.3907C16.3732 3.59896 16.2484 4.04857 16.4431 4.40871L18.7554 8.68602H23.5959L25.9083 4.40871C26.1029 4.04857 25.9781 3.59896 25.6257 3.3907Z" fill="#FF5A23"/>
<path d="M19.2713 10.207H23.0799V12.4922H19.2713V10.207Z" fill="#FF5A23"/>
<path d="M19.2713 22.0137C19.2713 23.0654 20.1239 23.918 21.1756 23.918C22.2273 23.918 23.0799 23.0654 23.0799 22.0137V14.0156H19.2713V22.0137Z" fill="#FF5A23"/>
<path d="M13.0161 7.855C11.9131 6.75198 10.4466 6.14453 8.88672 6.14453C7.32682 6.14453 5.86031 6.75198 4.75734 7.855C3.65432 8.95796 3.04688 10.4245 3.04688 11.9844C3.04688 13.5443 3.65432 15.0108 4.75734 16.1138C5.86031 17.2168 7.32682 17.8242 8.88672 17.8242C10.4466 17.8242 11.9131 17.2168 13.0161 16.1138C14.1191 15.0108 14.7266 13.5443 14.7266 11.9844C14.7266 10.4245 14.1191 8.95796 13.0161 7.855ZM6.01412 13.4642C5.81918 13.4642 5.62423 13.3899 5.47554 13.2411C5.17806 12.9436 5.17806 12.4614 5.47554 12.1639L9.06628 8.57314C9.36371 8.27567 9.84603 8.27567 10.1435 8.57314C10.441 8.87062 10.441 9.35289 10.1435 9.65037L6.55276 13.2411C6.40397 13.3899 6.20907 13.4642 6.01412 13.4642ZM12.2979 11.8048L8.70721 15.3956C8.55847 15.5443 8.36352 15.6187 8.16862 15.6187C7.97372 15.6187 7.77872 15.5443 7.63004 15.3956C7.33256 15.0981 7.33256 14.6158 7.63004 14.3183L11.2208 10.7276C11.5182 10.4301 12.0005 10.4301 12.298 10.7276C12.5954 11.0251 12.5954 11.5073 12.2979 11.8048Z" fill="#FF5A23"/>
<path d="M8.88672 3.09766C3.98658 3.09766 0 7.08424 0 11.9844C0 15.0447 1.55497 17.7486 3.91625 19.3477H8.88672C4.82011 19.3477 1.52344 16.051 1.52344 11.9844C1.52344 7.91776 4.82011 4.62109 8.88672 4.62109C12.9533 4.62109 16.25 7.91776 16.25 11.9844C16.25 16.051 12.9533 19.3477 8.88672 19.3477H13.8572C16.2185 17.7486 17.7734 15.0447 17.7734 11.9844C17.7734 7.08424 13.7869 3.09766 8.88672 3.09766Z" fill="#FF5A23"/>
</g>
<defs>
<clipPath id="clip0">
<rect width="26" height="26" fill="white"/>
</clipPath>
</defs>
</svg>
