<svg width="35" height="35" viewBox="0 0 35 35" fill="none" xmlns="http://www.w3.org/2000/svg">
<path d="M21.875 10.9375H2.1875C0.979385 10.9375 0 11.9169 0 13.125V32.8125C0 34.0206 0.979385 35 2.1875 35H21.875C23.0831 35 24.0625 34.0206 24.0625 32.8125V13.125C24.0625 11.9169 23.0831 10.9375 21.875 10.9375ZM21.875 32.8125H2.1875V13.125H21.875V32.8125Z" fill="white"/>
<path d="M32.8125 0H13.125C11.9169 0 10.9375 0.979385 10.9375 2.1875V7.65625H13.125V2.1875H32.8125V21.875H27.3438V24.0625H32.8125C34.0206 24.0625 35 23.0831 35 21.875V2.1875C35 0.979385 34.0206 0 32.8125 0Z" fill="white"/>
</svg>
