<svg width="45" height="45" viewBox="0 0 45 45" fill="none" xmlns="http://www.w3.org/2000/svg">
<path d="M38.6419 8.59921L30.3053 0.26256C30.1371 0.0944821 29.9091 0 29.6714 0H6.99212C6.49703 0 6.0957 0.401325 6.0957 0.896414V44.1036C6.0957 44.5987 6.49703 45 6.99212 45H38.0081C38.5031 45 38.9045 44.5987 38.9045 44.1036V9.23307C38.9045 8.99534 38.81 8.76729 38.6419 8.59921ZM30.5678 3.06063L35.8438 8.33665H30.5678V3.06063ZM37.1116 43.2072H7.88853V1.79283H28.775V9.23307C28.775 9.72816 29.1764 10.1295 29.6714 10.1295H37.1116V43.2072Z" fill="white"/>
<path d="M12.4155 15.5975H27.2511C27.7461 15.5975 28.1475 15.1962 28.1475 14.7011C28.1475 14.206 27.7461 13.8047 27.2511 13.8047H12.4155C11.9204 13.8047 11.519 14.206 11.519 14.7011C11.519 15.1962 11.9204 15.5975 12.4155 15.5975Z" fill="white"/>
<path d="M32.5848 19.7212H12.4155C11.9204 19.7212 11.519 20.1225 11.519 20.6176C11.519 21.1127 11.9204 21.514 12.4155 21.514H32.5848C33.0798 21.514 33.4812 21.1127 33.4812 20.6176C33.4812 20.1225 33.0798 19.7212 32.5848 19.7212Z" fill="white"/>
<path d="M32.5848 25.6377H12.4155C11.9204 25.6377 11.519 26.039 11.519 26.5341C11.519 27.0292 11.9204 27.4305 12.4155 27.4305H32.5848C33.0798 27.4305 33.4812 27.0292 33.4812 26.5341C33.4812 26.039 33.0798 25.6377 32.5848 25.6377Z" fill="white"/>
<path d="M32.5848 31.5537H12.4155C11.9204 31.5537 11.519 31.955 11.519 32.4501C11.519 32.9452 11.9204 33.3465 12.4155 33.3465H32.5848C33.0798 33.3465 33.4812 32.9452 33.4812 32.4501C33.4812 31.955 33.0798 31.5537 32.5848 31.5537Z" fill="white"/>
<path d="M30.6127 15.5975H32.5848C33.0798 15.5975 33.4813 15.1962 33.4813 14.7011C33.4813 14.206 33.0798 13.8047 32.5848 13.8047H30.6127C30.1177 13.8047 29.7163 14.206 29.7163 14.7011C29.7163 15.1962 30.1177 15.5975 30.6127 15.5975Z" fill="white"/>
</svg>
