<svg width="25" height="16" viewBox="0 0 25 16" fill="none" xmlns="http://www.w3.org/2000/svg">
<path d="M16.5571 7.702C16.38 7.476 16.0196 7.33334 15.6248 7.33334H13.5415V0.666656C13.5415 0.298656 13.0758 0 12.4998 0C11.9238 0 11.4582 0.298656 11.4582 0.666656V7.33331H9.37482C8.98005 7.33331 8.6196 7.47597 8.44255 7.70197C8.26755 7.92797 8.30505 8.19797 8.54152 8.39997L11.6665 11.0666C11.68 11.078 11.7009 11.082 11.7155 11.0926C11.7842 11.1446 11.8655 11.1846 11.9561 11.2213C11.9936 11.2359 12.0228 11.2553 12.0634 11.2673C12.1967 11.3073 12.3425 11.3333 12.4999 11.3333C12.6572 11.3333 12.803 11.3073 12.9374 11.2673C12.977 11.2553 13.0071 11.2359 13.0436 11.2213C13.1342 11.1846 13.2155 11.1446 13.2842 11.0926C13.2978 11.082 13.3196 11.078 13.3332 11.0666L16.4582 8.39997C16.6957 8.198 16.7332 7.928 16.5571 7.702Z" fill="white"/>
<path d="M23.9583 10C23.3823 10 22.9167 10.2987 22.9167 10.6667V12.6667C22.9167 13.7693 21.5146 14.6667 19.7917 14.6667H5.20835C3.48545 14.6667 2.08335 13.7693 2.08335 12.6667V10.6667C2.08335 10.2987 1.61772 10 1.0417 10C0.465625 10 0 10.2987 0 10.6667V12.6667C0 14.5047 2.33647 16 5.20835 16H19.7917C22.6635 16 25 14.5047 25 12.6667V10.6667C25 10.2987 24.5344 10 23.9583 10Z" fill="white"/>
</svg>
