<svg width="14" height="14" viewBox="0 0 14 14" fill="none" xmlns="http://www.w3.org/2000/svg">
<path d="M13.6689 0.0488281H10.5256C10.3427 0.0488281 10.1946 0.19703 10.1946 0.379834V1.26252C10.1946 1.44532 10.3427 1.59352 10.5256 1.59352H11.3629L8.84159 4.11477C8.77954 4.17682 8.74463 4.26103 8.74463 4.34881C8.74463 4.4366 8.77954 4.5208 8.84159 4.58286L9.46578 5.20705C9.53044 5.2717 9.61513 5.30401 9.69987 5.30401C9.78456 5.30401 9.8693 5.27166 9.93396 5.20705L12.4553 2.6858V3.5232C12.4553 3.706 12.6035 3.8542 12.7863 3.8542H13.669C13.8518 3.8542 14 3.706 14 3.5232V0.379834C13.9999 0.19703 13.8517 0.0488281 13.6689 0.0488281Z" fill="white"/>
<path d="M2.63701 1.59352H3.47437C3.65722 1.59352 3.80538 1.44532 3.80538 1.26252V0.379834C3.80538 0.19703 3.65722 0.0488281 3.47437 0.0488281H0.331006C0.148158 0.0488281 0 0.19703 0 0.379834V3.5232C0 3.706 0.148158 3.8542 0.331006 3.8542H1.21369C1.39654 3.8542 1.54469 3.706 1.54469 3.5232V2.68584L4.06585 5.20705C4.13051 5.27166 4.21525 5.30401 4.29999 5.30401C4.38468 5.30401 4.46942 5.27166 4.53412 5.20705L5.15826 4.58286C5.22031 4.5208 5.25518 4.4366 5.25518 4.34881C5.25518 4.26103 5.22031 4.17682 5.15826 4.11477L2.63701 1.59352Z" fill="white"/>
<path d="M4.53407 8.79324C4.40476 8.66397 4.19521 8.66397 4.06585 8.79324L1.54469 11.3144V10.477C1.54469 10.2942 1.39654 10.146 1.21369 10.146H0.331006C0.148158 10.146 0 10.2942 0 10.477V13.6204C0 13.8032 0.148158 13.9514 0.331006 13.9514H3.47437C3.65722 13.9514 3.80537 13.8032 3.80537 13.6204V12.7377C3.80537 12.5549 3.65722 12.4067 3.47437 12.4067H2.63701L5.15822 9.88552C5.22027 9.82346 5.25514 9.73926 5.25514 9.65147C5.25514 9.56369 5.22027 9.47948 5.15822 9.41743L4.53407 8.79324Z" fill="white"/>
<path d="M13.6689 10.146H12.7863C12.6034 10.146 12.4552 10.2942 12.4552 10.477V11.3145L9.93387 8.79324C9.8046 8.66397 9.59505 8.66397 9.46578 8.79324L8.84159 9.41743C8.77954 9.47948 8.74463 9.56369 8.74463 9.65147C8.74463 9.73925 8.77954 9.82346 8.84164 9.88552L11.3629 12.4067H10.5256C10.3427 12.4067 10.1946 12.5549 10.1946 12.7377V13.6204C10.1946 13.8032 10.3427 13.9514 10.5256 13.9514H13.6689C13.8518 13.9514 13.9999 13.8032 13.9999 13.6204V10.477C13.9999 10.2942 13.8517 10.146 13.6689 10.146Z" fill="white"/>
</svg>
