<svg width="60" height="60" viewBox="0 0 60 60" fill="none" xmlns="http://www.w3.org/2000/svg">
<g clip-path="url(#clip0)">
<path d="M39.2465 42.5452V39.5478C39.2465 36.0174 36.5222 33.906 33.904 31.846C33.5423 31.5621 33.082 31.023 33.082 30.2C33.082 29.377 33.4967 28.5746 33.904 28.2313C36.4515 26.0849 39.2465 24.0599 39.2465 20.5296V18.2663H41.3013V15.3857H18.6985V18.2663H20.7533V20.5296C20.7533 24.06 23.5482 26.085 26.0958 28.2314C26.5031 28.5746 26.9177 29.377 26.9177 30.2001C26.9177 31.0231 26.4574 31.5621 26.0958 31.8461C23.4776 33.9061 20.7533 36.0176 20.7533 39.5478V42.5453H18.6985V45.4258H41.3012V42.5452H39.2465ZM24.8107 23.2044C24.0533 22.3459 23.63 21.5197 23.63 20.5296V18.2663H36.3697V20.5296C36.3697 21.5197 35.9464 22.3461 35.1891 23.2044H24.8107V23.2044ZM36.3697 41.7424L31.5315 39.8516C30.6891 39.5224 29.3111 39.5224 28.4686 39.8516L23.63 41.7425V39.548C23.63 37.5505 25.2155 36.2016 27.8029 34.1663L27.8715 34.1124C28.8537 33.3412 29.4907 32.2672 29.7069 31.0837C29.9004 31.1269 30.0994 31.1269 30.2929 31.0837C30.5082 32.2668 31.146 33.3409 32.1269 34.1112L32.1968 34.1663C34.7842 36.2015 36.3697 37.55 36.3697 39.5479V41.7424H36.3697Z" fill="url(#paint0_linear)"/>
</g>
<rect x="1" y="1" width="58" height="58" rx="9" stroke="#FD8126" stroke-opacity="0.1" stroke-width="2"/>
<defs>
<linearGradient id="paint0_linear" x1="29.9999" y1="15.3857" x2="29.9999" y2="45.4258" gradientUnits="userSpaceOnUse">
<stop stop-color="#FBBA2C"/>
<stop offset="1" stop-color="#FF5922"/>
</linearGradient>
<clipPath id="clip0">
<rect width="30" height="30.04" fill="white" transform="translate(15 15.3857)"/>
</clipPath>
</defs>
</svg>
