<svg width="54" height="50" viewBox="0 0 54 50" fill="none" xmlns="http://www.w3.org/2000/svg">
<g clip-path="url(#clip0)">
<path d="M37.9844 13.1836L27.7305 10.2539L24.8008 0H4.29297C1.86592 0 -0.101562 1.96748 -0.101562 4.39453V45.6055C-0.101562 48.0325 1.86592 50 4.29297 50H33.5898C36.0169 50 37.9844 48.0325 37.9844 45.6055V13.1836Z" fill="white"/>
<path d="M27.2497 10.3913L27.326 10.6584L27.5931 10.7347L37.4844 13.5607V45.6055C37.4844 47.7564 35.7408 49.5 33.5898 49.5H4.29297C2.14206 49.5 0.398438 47.7564 0.398438 45.6055V4.39453C0.398438 2.24362 2.14206 0.5 4.29297 0.5H24.4236L27.2497 10.3913Z" fill="white" stroke="url(#paint0_linear)"/>
<path d="M20.875 12C20.3918 12 20 12.3918 20 12.875V18.125C20 18.6082 20.3918 19 20.875 19H26.125C26.6082 19 27 18.6082 27 18.125C26.9999 14.7423 24.2577 12 20.875 12Z" fill="#FF5722"/>
<path d="M20.4189 21.387C18.8693 21.387 17.613 20.1307 17.613 18.5811V14C14.0414 14.508 11.5579 17.8153 12.0659 21.387C12.574 24.9586 15.8813 27.4421 19.4529 26.9341C22.33 26.5248 24.5907 24.2641 25 21.387H20.4189Z" fill="#FF5722"/>
<path d="M37.9844 13.1836H27.7305C26.1191 13.1836 24.8008 11.8652 24.8008 10.2539V0C25.1816 0 25.5625 0.146484 25.8261 0.439551L37.5448 12.1583C37.8379 12.4219 37.9844 12.8027 37.9844 13.1836Z" fill="#F1F1F1"/>
<path d="M27.7305 34.5352H10.1523C9.34268 34.5352 8.6875 33.88 8.6875 33.0703C8.6875 32.2606 9.34268 31.6055 10.1523 31.6055H27.7305C28.5401 31.6055 29.1953 32.2606 29.1953 33.0703C29.1953 33.88 28.5401 34.5352 27.7305 34.5352Z" fill="#FF5722"/>
<path d="M27.7305 39.3945H10.1523C9.34268 39.3945 8.6875 38.7394 8.6875 37.9297C8.6875 37.12 9.34268 36.4648 10.1523 36.4648H27.7305C28.5401 36.4648 29.1953 37.12 29.1953 37.9297C29.1953 38.7394 28.5401 39.3945 27.7305 39.3945Z" fill="#FF5722"/>
</g>
<path d="M53.9841 13.1836L43.7302 10.2539L40.8005 0H20.2927C17.8657 0 15.8982 1.96748 15.8982 4.39453V45.6055C15.8982 48.0325 17.8657 50 20.2927 50H49.5896C52.0167 50 53.9841 48.0325 53.9841 45.6055V13.1836Z" fill="white"/>
<path d="M43.2495 10.3913L43.3258 10.6584L43.5929 10.7347L53.4841 13.5607V45.6055C53.4841 47.7564 51.7405 49.5 49.5896 49.5H20.2927C18.1418 49.5 16.3982 47.7564 16.3982 45.6055V4.39453C16.3982 2.24362 18.1418 0.5 20.2927 0.5H40.4234L43.2495 10.3913Z" fill="white" stroke="url(#paint1_linear)"/>
<path d="M53.9841 13.1836H43.7302C42.1189 13.1836 40.8005 11.8652 40.8005 10.2539V0C41.1814 0 41.5623 0.146484 41.8258 0.439551L53.5446 12.1583C53.8376 12.4219 53.9841 12.8027 53.9841 13.1836Z" fill="#FABE2C"/>
<path d="M43.7302 39.6484H26.1521C25.3424 39.6484 24.6873 38.9933 24.6873 38.1836V23.5352C24.6873 22.7255 25.3424 22.0703 26.1521 22.0703H43.7302C44.5399 22.0703 45.1951 22.7255 45.1951 23.5352V38.1836C45.1951 38.9933 44.5399 39.6484 43.7302 39.6484ZM27.6169 35.2539H42.2654V26.4648H27.6169V35.2539Z" fill="#FABE2C"/>
<defs>
<linearGradient id="paint0_linear" x1="-4.51576e-08" y1="19" x2="15.5" y2="19" gradientUnits="userSpaceOnUse">
<stop stop-color="#FE6D2C"/>
<stop offset="1" stop-color="white" stop-opacity="0"/>
</linearGradient>
<linearGradient id="paint1_linear" x1="16" y1="25" x2="44" y2="25" gradientUnits="userSpaceOnUse">
<stop stop-color="#FABE2C"/>
<stop offset="1" stop-color="white" stop-opacity="0"/>
</linearGradient>
<clipPath id="clip0">
<rect width="37.4275" height="50" fill="white"/>
</clipPath>
</defs>
</svg>
