<svg width="26" height="26" viewBox="0 0 26 26" fill="none" xmlns="http://www.w3.org/2000/svg">
<path d="M24.9167 14.0607H1.08333C0.485331 14.0607 0 13.5754 0 12.9774C0 12.3794 0.485331 11.894 1.08333 11.894H24.9167C25.5147 11.894 26 12.3794 26 12.9774C26 13.5754 25.5147 14.0607 24.9167 14.0607Z" fill="white"/>
<path d="M24.9167 5.75505H1.08333C0.485331 5.75505 0 5.26971 0 4.67171C0 4.07371 0.485331 3.58838 1.08333 3.58838H24.9167C25.5147 3.58838 26 4.07371 26 4.67171C26 5.26971 25.5147 5.75505 24.9167 5.75505Z" fill="white"/>
<path d="M24.9167 22.3664H1.08333C0.485331 22.3664 0 21.881 0 21.283C0 20.685 0.485331 20.1997 1.08333 20.1997H24.9167C25.5147 20.1997 26 20.685 26 21.283C26 21.881 25.5147 22.3664 24.9167 22.3664Z" fill="white"/>
</svg>
