<svg width="20" height="20" viewBox="0 0 20 20" fill="none" xmlns="http://www.w3.org/2000/svg">
<path d="M4.44414 9.2196L13.3444 0.31951C13.5502 0.113495 13.825 0 14.118 0C14.411 0 14.6858 0.113495 14.8917 0.31951L15.5471 0.974789C15.9736 1.40178 15.9736 2.09576 15.5471 2.52209L8.07338 9.99585L15.5554 17.4779C15.7613 17.6839 15.8749 17.9586 15.8749 18.2514C15.8749 18.5446 15.7613 18.8192 15.5554 19.0254L14.9 19.6805C14.694 19.8865 14.4193 20 14.1263 20C13.8333 20 13.5585 19.8865 13.3527 19.6805L4.44414 10.7723C4.2378 10.5656 4.12447 10.2897 4.12512 9.99634C4.12447 9.70187 4.2378 9.4261 4.44414 9.2196Z" fill="white"/>
</svg>
