<svg width="45" height="45" viewBox="0 0 45 45" fill="none" xmlns="http://www.w3.org/2000/svg">
<path d="M19.9626 0C19.4772 0 19.0837 0.393486 19.0837 0.878906V6.29886C19.0837 6.78419 19.4772 7.17776 19.9626 7.17776C20.4481 7.17776 20.8416 6.78428 20.8416 6.29886V0.878906C20.8416 0.393486 20.4481 0 19.9626 0Z" fill="white"/>
<path d="M31.4973 11.5371H26.0774C25.592 11.5371 25.1985 11.9306 25.1985 12.416C25.1985 12.9014 25.592 13.2949 26.0774 13.2949H31.4973C31.9828 13.2949 32.3763 12.9014 32.3763 12.416C32.3763 11.9306 31.9828 11.5371 31.4973 11.5371Z" fill="white"/>
<path d="M13.8459 11.5347H8.42602C7.9406 11.5347 7.54712 11.9282 7.54712 12.4136C7.54712 12.899 7.9406 13.2925 8.42602 13.2925H13.846C14.3313 13.2925 14.7248 12.899 14.7248 12.4136C14.7248 11.9282 14.3313 11.5347 13.8459 11.5347Z" fill="white"/>
<path d="M15.6146 6.82318L13.0556 4.26425C12.7124 3.92103 12.1559 3.92103 11.8126 4.26425C11.4694 4.60746 11.4694 5.16398 11.8126 5.50728L14.3716 8.06621C14.5433 8.23786 14.7682 8.32364 14.9931 8.32364C15.218 8.32364 15.443 8.23786 15.6146 8.06621C15.9578 7.723 15.9578 7.16648 15.6146 6.82318Z" fill="white"/>
<path d="M28.1121 4.26571C27.7689 3.9225 27.2124 3.9225 26.8691 4.26571L24.3101 6.82464C23.9669 7.16785 23.9669 7.72438 24.3101 8.06768C24.4818 8.23933 24.7068 8.32511 24.9317 8.32511C25.1566 8.32511 25.3816 8.23933 25.5532 8.06768L28.1121 5.50874C28.4554 5.16553 28.4554 4.60901 28.1121 4.26571Z" fill="white"/>
<path d="M34.2009 20.013C33.6076 20.013 33.0514 20.1735 32.572 20.4522C32.1724 19.1086 30.9266 18.1255 29.4548 18.1255C28.5194 18.1255 27.6757 18.523 27.0818 19.1573C26.488 18.523 25.6441 18.1255 24.7087 18.1255C24.1702 18.1255 23.6624 18.2579 23.2146 18.4905V12.4145C23.2146 10.6214 21.7558 9.1626 19.9626 9.1626C18.1695 9.1626 16.7107 10.6214 16.7107 12.4145V17.0488C16.7107 17.5342 17.1042 17.9277 17.5896 17.9277C18.075 17.9277 18.4685 17.5342 18.4685 17.0488V12.4145C18.4685 11.5907 19.1388 10.9204 19.9626 10.9204C20.7865 10.9204 21.4568 11.5907 21.4568 12.4145V27.1281C21.4568 27.6135 21.8503 28.007 22.3357 28.007C22.8211 28.007 23.2146 27.6135 23.2146 27.1281V21.3774C23.2146 20.5536 23.8849 19.8833 24.7087 19.8833C25.5326 19.8833 26.2029 20.5536 26.2029 21.3774V22.2257V27.1281C26.2029 27.6135 26.5964 28.007 27.0818 28.007C27.5672 28.007 27.9607 27.6135 27.9607 27.1281V22.2257V21.3774C27.9607 20.5536 28.6309 19.8833 29.4548 19.8833C30.2787 19.8833 30.949 20.5536 30.949 21.3774V23.2649V24.785V27.1282C30.949 27.6136 31.3425 28.0071 31.8279 28.0071C32.3133 28.0071 32.7068 27.6136 32.7068 27.1282V24.785V23.2649C32.7068 22.441 33.377 21.7708 34.2009 21.7708C35.0248 21.7708 35.6951 22.441 35.6951 23.2649V32.456C35.6951 33.1107 35.6361 33.7661 35.5196 34.4042C35.4325 34.8818 35.749 35.3395 36.2265 35.4266C36.2799 35.4362 36.3329 35.441 36.3853 35.441C36.8017 35.441 37.1715 35.1438 37.249 34.7196C37.3842 33.9777 37.4529 33.2161 37.4529 32.4559V23.2649C37.4529 21.4718 35.9941 20.013 34.2009 20.013Z" fill="white"/>
<path d="M33.5077 40.3878C33.1766 40.0329 32.6203 40.0136 32.2655 40.3447C30.2627 42.2132 27.6502 43.2422 24.9094 43.2422C20.7975 43.2422 16.985 40.8496 15.1968 37.1468L11.1483 28.764C10.7831 28.0079 11.0667 27.0868 11.7938 26.667C12.5457 26.2331 13.5245 26.4829 13.9763 27.224L16.8396 31.9222C17.0447 32.2586 17.4485 32.4175 17.8277 32.3111C18.207 32.2046 18.4691 31.8588 18.4691 31.4648V22.8516C18.4691 22.3661 18.0756 21.9727 17.5901 21.9727C17.1047 21.9727 16.7112 22.3661 16.7112 22.8516V28.3339L15.4773 26.3093C14.517 24.7336 12.5129 24.222 10.9149 25.1447C9.39487 26.0223 8.80205 27.9479 9.56547 29.5284L13.614 37.9113C14.6411 40.038 16.2413 41.8257 18.2417 43.081C20.2421 44.3364 22.5478 45 24.9095 45C28.0969 45 31.1351 43.8032 33.4646 41.63C33.8195 41.2988 33.8388 40.7428 33.5077 40.3878Z" fill="white"/>
<path d="M35.7813 37.4064C35.6178 37.243 35.3911 37.1489 35.1599 37.1489C34.9288 37.1489 34.702 37.243 34.5385 37.4064C34.375 37.5699 34.281 37.7967 34.281 38.0278C34.281 38.2599 34.375 38.4857 34.5385 38.6492C34.702 38.8127 34.9288 38.9067 35.1599 38.9067C35.3911 38.9067 35.6178 38.8127 35.7813 38.6492C35.9448 38.4857 36.0388 38.2599 36.0388 38.0278C36.0388 37.7967 35.9448 37.5699 35.7813 37.4064Z" fill="white"/>
<path d="M18.211 19.4177C18.0475 19.2542 17.8208 19.1602 17.5896 19.1602C17.3584 19.1602 17.1317 19.2542 16.9682 19.4177C16.8047 19.5812 16.7107 19.8079 16.7107 20.0391C16.7107 20.2702 16.8047 20.497 16.9682 20.6604C17.1317 20.8239 17.3584 20.918 17.5896 20.918C17.8208 20.918 18.0475 20.8239 18.211 20.6604C18.3745 20.497 18.4685 20.2702 18.4685 20.0391C18.4685 19.8079 18.3745 19.5812 18.211 19.4177Z" fill="white"/>
</svg>
